<mxfile host="app.diagrams.net" modified="2024-06-04T15:40:41.959Z" agent="Mozilla/5.0 (X11; Linux x86_64; rv:126.0) Gecko/20100101 Firefox/126.0" etag="qIamcpnZIbMnwIntquv6" version="24.4.13" type="device">
  <diagram name="Page-1" id="b520641d-4fe3-3701-9064-5fc419738815">
    <mxGraphModel dx="2093" dy="540" grid="1" gridSize="10" guides="1" tooltips="1" connect="1" arrows="1" fold="1" page="1" pageScale="1" pageWidth="1100" pageHeight="850" background="none" math="0" shadow="0">
      <root>
        <mxCell id="0" />
        <mxCell id="1" parent="0" />
        <mxCell id="iy51wzf_8HV-P7YHCsAi-109" style="edgeStyle=orthogonalEdgeStyle;rounded=1;orthogonalLoop=1;jettySize=auto;html=1;exitX=1;exitY=0.5;exitDx=0;exitDy=0;entryX=0;entryY=0.5;entryDx=0;entryDy=0;curved=0;" edge="1" parent="1" source="iy51wzf_8HV-P7YHCsAi-79" target="iy51wzf_8HV-P7YHCsAi-107">
          <mxGeometry relative="1" as="geometry">
            <Array as="points">
              <mxPoint x="470" y="695" />
              <mxPoint x="470" y="721" />
            </Array>
          </mxGeometry>
        </mxCell>
        <mxCell id="21ea969265ad0168-6" value="item.csv" style="swimlane;html=1;fontStyle=1;childLayout=stackLayout;horizontal=1;startSize=26;fillColor=#330066;horizontalStack=0;resizeParent=1;resizeLast=0;collapsible=1;marginBottom=0;swimlaneFillColor=#ffffff;align=center;rounded=1;shadow=0;comic=0;labelBackgroundColor=none;strokeWidth=1;fontFamily=Verdana;fontSize=12;fontColor=#FFFFFF;strokeColor=#330066;" parent="1" vertex="1">
          <mxGeometry x="-130" y="74" width="160" height="216" as="geometry" />
        </mxCell>
        <mxCell id="21ea969265ad0168-7" value="&lt;b&gt;adjective&lt;/b&gt; &lt;i&gt;string&lt;/i&gt;" style="text;html=1;strokeColor=default;fillColor=none;spacingLeft=4;spacingRight=4;whiteSpace=wrap;overflow=hidden;rotatable=0;points=[[0,0.5],[1,0.5]];portConstraint=eastwest;dashed=1;dashPattern=1 4;" parent="21ea969265ad0168-6" vertex="1">
          <mxGeometry y="26" width="160" height="26" as="geometry" />
        </mxCell>
        <mxCell id="21ea969265ad0168-8" value="&lt;b&gt;category&lt;/b&gt; &lt;i&gt;string&lt;/i&gt;" style="text;html=1;strokeColor=default;fillColor=none;spacingLeft=4;spacingRight=4;whiteSpace=wrap;overflow=hidden;rotatable=0;points=[[0,0.5],[1,0.5]];portConstraint=eastwest;dashed=1;dashPattern=1 4;" parent="21ea969265ad0168-6" vertex="1">
          <mxGeometry y="52" width="160" height="26" as="geometry" />
        </mxCell>
        <mxCell id="21ea969265ad0168-9" value="&lt;b&gt;created at&lt;/b&gt; &lt;i&gt;string&lt;/i&gt;" style="text;html=1;strokeColor=default;fillColor=none;spacingLeft=4;spacingRight=4;whiteSpace=wrap;overflow=hidden;rotatable=0;points=[[0,0.5],[1,0.5]];portConstraint=eastwest;dashed=1;dashPattern=1 4;" parent="21ea969265ad0168-6" vertex="1">
          <mxGeometry y="78" width="160" height="26" as="geometry" />
        </mxCell>
        <mxCell id="iy51wzf_8HV-P7YHCsAi-1" value="&lt;b&gt;id&lt;/b&gt; &lt;i&gt;string&lt;/i&gt;" style="text;html=1;strokeColor=default;fillColor=none;spacingLeft=4;spacingRight=4;whiteSpace=wrap;overflow=hidden;rotatable=0;points=[[0,0.5],[1,0.5]];portConstraint=eastwest;dashed=1;dashPattern=1 4;" vertex="1" parent="21ea969265ad0168-6">
          <mxGeometry y="104" width="160" height="26" as="geometry" />
        </mxCell>
        <mxCell id="iy51wzf_8HV-P7YHCsAi-2" value="&lt;b&gt;modifier&lt;/b&gt; &lt;i&gt;string&lt;/i&gt;" style="text;html=1;strokeColor=default;fillColor=none;spacingLeft=4;spacingRight=4;whiteSpace=wrap;overflow=hidden;rotatable=0;points=[[0,0.5],[1,0.5]];portConstraint=eastwest;dashed=1;dashPattern=1 4;" vertex="1" parent="21ea969265ad0168-6">
          <mxGeometry y="130" width="160" height="26" as="geometry" />
        </mxCell>
        <mxCell id="iy51wzf_8HV-P7YHCsAi-3" value="&lt;b&gt;name&lt;/b&gt; &lt;i&gt;string&lt;/i&gt;" style="text;html=1;strokeColor=default;fillColor=none;spacingLeft=4;spacingRight=4;whiteSpace=wrap;overflow=hidden;rotatable=0;points=[[0,0.5],[1,0.5]];portConstraint=eastwest;dashed=1;dashPattern=1 4;" vertex="1" parent="21ea969265ad0168-6">
          <mxGeometry y="156" width="160" height="26" as="geometry" />
        </mxCell>
        <mxCell id="iy51wzf_8HV-P7YHCsAi-4" value="&lt;b&gt;price&lt;/b&gt; &lt;i&gt;string&lt;/i&gt;" style="text;html=1;strokeColor=default;fillColor=none;spacingLeft=4;spacingRight=4;whiteSpace=wrap;overflow=hidden;rotatable=0;points=[[0,0.5],[1,0.5]];portConstraint=eastwest;dashed=1;dashPattern=1 4;" vertex="1" parent="21ea969265ad0168-6">
          <mxGeometry y="182" width="160" height="26" as="geometry" />
        </mxCell>
        <mxCell id="21ea969265ad0168-39" style="edgeStyle=orthogonalEdgeStyle;html=1;entryX=0;entryY=0.5;labelBackgroundColor=none;startFill=0;startSize=8;endFill=1;endSize=8;fontFamily=Verdana;fontSize=12;exitX=1;exitY=0.5;entryDx=0;entryDy=0;rounded=1;curved=0;" parent="1" source="21ea969265ad0168-8" target="iy51wzf_8HV-P7YHCsAi-7" edge="1">
          <mxGeometry relative="1" as="geometry">
            <Array as="points" />
            <mxPoint x="560" y="139" as="targetPoint" />
          </mxGeometry>
        </mxCell>
        <mxCell id="iy51wzf_8HV-P7YHCsAi-5" value="item_event_bronze.item" style="swimlane;html=1;fontStyle=1;childLayout=stackLayout;horizontal=1;startSize=26;fillColor=#330066;horizontalStack=0;resizeParent=1;resizeLast=0;collapsible=1;marginBottom=0;swimlaneFillColor=#ffffff;align=center;rounded=1;shadow=0;comic=0;labelBackgroundColor=none;strokeWidth=1;fontFamily=Verdana;fontSize=12;fontColor=#FFFFFF;strokeColor=#330066;" vertex="1" parent="1">
          <mxGeometry x="119" y="74" width="190" height="216" as="geometry">
            <mxRectangle x="355" y="74" width="150" height="30" as="alternateBounds" />
          </mxGeometry>
        </mxCell>
        <mxCell id="iy51wzf_8HV-P7YHCsAi-6" value="&lt;b&gt;adjective&lt;/b&gt; &lt;i&gt;string&lt;/i&gt;" style="text;html=1;strokeColor=default;fillColor=none;spacingLeft=4;spacingRight=4;whiteSpace=wrap;overflow=hidden;rotatable=0;points=[[0,0.5],[1,0.5]];portConstraint=eastwest;dashed=1;dashPattern=1 4;" vertex="1" parent="iy51wzf_8HV-P7YHCsAi-5">
          <mxGeometry y="26" width="190" height="26" as="geometry" />
        </mxCell>
        <mxCell id="iy51wzf_8HV-P7YHCsAi-7" value="&lt;b&gt;category&lt;/b&gt; &lt;i&gt;string&lt;/i&gt;" style="text;html=1;strokeColor=default;fillColor=none;spacingLeft=4;spacingRight=4;whiteSpace=wrap;overflow=hidden;rotatable=0;points=[[0,0.5],[1,0.5]];portConstraint=eastwest;dashed=1;dashPattern=1 4;" vertex="1" parent="iy51wzf_8HV-P7YHCsAi-5">
          <mxGeometry y="52" width="190" height="26" as="geometry" />
        </mxCell>
        <mxCell id="iy51wzf_8HV-P7YHCsAi-8" value="&lt;b&gt;created at&lt;/b&gt; &lt;i&gt;string&lt;/i&gt;" style="text;html=1;strokeColor=default;fillColor=none;spacingLeft=4;spacingRight=4;whiteSpace=wrap;overflow=hidden;rotatable=0;points=[[0,0.5],[1,0.5]];portConstraint=eastwest;dashed=1;dashPattern=1 4;" vertex="1" parent="iy51wzf_8HV-P7YHCsAi-5">
          <mxGeometry y="78" width="190" height="26" as="geometry" />
        </mxCell>
        <mxCell id="iy51wzf_8HV-P7YHCsAi-9" value="&lt;b&gt;id&lt;/b&gt; &lt;i&gt;string&lt;/i&gt;" style="text;html=1;strokeColor=default;fillColor=none;spacingLeft=4;spacingRight=4;whiteSpace=wrap;overflow=hidden;rotatable=0;points=[[0,0.5],[1,0.5]];portConstraint=eastwest;dashed=1;dashPattern=1 4;" vertex="1" parent="iy51wzf_8HV-P7YHCsAi-5">
          <mxGeometry y="104" width="190" height="26" as="geometry" />
        </mxCell>
        <mxCell id="iy51wzf_8HV-P7YHCsAi-10" value="&lt;b&gt;modifier&lt;/b&gt; &lt;i&gt;string&lt;/i&gt;" style="text;html=1;strokeColor=default;fillColor=none;spacingLeft=4;spacingRight=4;whiteSpace=wrap;overflow=hidden;rotatable=0;points=[[0,0.5],[1,0.5]];portConstraint=eastwest;dashed=1;dashPattern=1 4;" vertex="1" parent="iy51wzf_8HV-P7YHCsAi-5">
          <mxGeometry y="130" width="190" height="26" as="geometry" />
        </mxCell>
        <mxCell id="iy51wzf_8HV-P7YHCsAi-11" value="&lt;b&gt;name&lt;/b&gt; &lt;i&gt;string&lt;/i&gt;" style="text;html=1;strokeColor=default;fillColor=none;spacingLeft=4;spacingRight=4;whiteSpace=wrap;overflow=hidden;rotatable=0;points=[[0,0.5],[1,0.5]];portConstraint=eastwest;dashed=1;dashPattern=1 4;" vertex="1" parent="iy51wzf_8HV-P7YHCsAi-5">
          <mxGeometry y="156" width="190" height="26" as="geometry" />
        </mxCell>
        <mxCell id="iy51wzf_8HV-P7YHCsAi-12" value="&lt;b&gt;price&lt;/b&gt; &lt;i&gt;string&lt;/i&gt;" style="text;html=1;strokeColor=default;fillColor=none;spacingLeft=4;spacingRight=4;whiteSpace=wrap;overflow=hidden;rotatable=0;points=[[0,0.5],[1,0.5]];portConstraint=eastwest;dashed=1;dashPattern=1 4;" vertex="1" parent="iy51wzf_8HV-P7YHCsAi-5">
          <mxGeometry y="182" width="190" height="26" as="geometry" />
        </mxCell>
        <mxCell id="iy51wzf_8HV-P7YHCsAi-13" style="edgeStyle=orthogonalEdgeStyle;rounded=1;orthogonalLoop=1;jettySize=auto;html=1;exitX=1;exitY=0.5;exitDx=0;exitDy=0;entryX=0;entryY=0.5;entryDx=0;entryDy=0;curved=0;" edge="1" parent="1" source="21ea969265ad0168-9" target="iy51wzf_8HV-P7YHCsAi-8">
          <mxGeometry relative="1" as="geometry" />
        </mxCell>
        <mxCell id="iy51wzf_8HV-P7YHCsAi-14" style="edgeStyle=orthogonalEdgeStyle;rounded=1;orthogonalLoop=1;jettySize=auto;html=1;exitX=1;exitY=0.5;exitDx=0;exitDy=0;entryX=0;entryY=0.5;entryDx=0;entryDy=0;curved=0;" edge="1" parent="1" source="iy51wzf_8HV-P7YHCsAi-1" target="iy51wzf_8HV-P7YHCsAi-9">
          <mxGeometry relative="1" as="geometry" />
        </mxCell>
        <mxCell id="iy51wzf_8HV-P7YHCsAi-15" style="edgeStyle=orthogonalEdgeStyle;rounded=1;orthogonalLoop=1;jettySize=auto;html=1;exitX=1;exitY=0.5;exitDx=0;exitDy=0;entryX=0;entryY=0.5;entryDx=0;entryDy=0;curved=0;" edge="1" parent="1" source="iy51wzf_8HV-P7YHCsAi-2" target="iy51wzf_8HV-P7YHCsAi-10">
          <mxGeometry relative="1" as="geometry" />
        </mxCell>
        <mxCell id="iy51wzf_8HV-P7YHCsAi-16" style="edgeStyle=orthogonalEdgeStyle;rounded=1;orthogonalLoop=1;jettySize=auto;html=1;exitX=1;exitY=0.5;exitDx=0;exitDy=0;entryX=0;entryY=0.5;entryDx=0;entryDy=0;curved=0;" edge="1" parent="1" source="iy51wzf_8HV-P7YHCsAi-3" target="iy51wzf_8HV-P7YHCsAi-11">
          <mxGeometry relative="1" as="geometry" />
        </mxCell>
        <mxCell id="iy51wzf_8HV-P7YHCsAi-17" style="edgeStyle=orthogonalEdgeStyle;rounded=1;orthogonalLoop=1;jettySize=auto;html=1;exitX=1;exitY=0.5;exitDx=0;exitDy=0;entryX=0;entryY=0.5;entryDx=0;entryDy=0;curved=0;" edge="1" parent="1" source="iy51wzf_8HV-P7YHCsAi-4" target="iy51wzf_8HV-P7YHCsAi-12">
          <mxGeometry relative="1" as="geometry" />
        </mxCell>
        <mxCell id="iy51wzf_8HV-P7YHCsAi-18" style="edgeStyle=orthogonalEdgeStyle;rounded=1;orthogonalLoop=1;jettySize=auto;html=1;exitX=1;exitY=0.5;exitDx=0;exitDy=0;entryX=0;entryY=0.5;entryDx=0;entryDy=0;curved=0;" edge="1" parent="1" source="21ea969265ad0168-7" target="iy51wzf_8HV-P7YHCsAi-6">
          <mxGeometry relative="1" as="geometry" />
        </mxCell>
        <mxCell id="iy51wzf_8HV-P7YHCsAi-19" value="item_event_silver.item_processed" style="swimlane;html=1;fontStyle=1;childLayout=stackLayout;horizontal=1;startSize=26;fillColor=#330066;horizontalStack=0;resizeParent=1;resizeLast=0;collapsible=1;marginBottom=0;swimlaneFillColor=#ffffff;align=center;rounded=1;shadow=0;comic=0;labelBackgroundColor=none;strokeWidth=1;fontFamily=Verdana;fontSize=12;fontColor=#FFFFFF;strokeColor=#330066;" vertex="1" parent="1">
          <mxGeometry x="810" y="100" width="270" height="216" as="geometry">
            <mxRectangle x="355" y="74" width="150" height="30" as="alternateBounds" />
          </mxGeometry>
        </mxCell>
        <mxCell id="iy51wzf_8HV-P7YHCsAi-21" value="&lt;b&gt;category&lt;/b&gt; &lt;i&gt;string&lt;/i&gt;" style="text;html=1;strokeColor=default;fillColor=none;spacingLeft=4;spacingRight=4;whiteSpace=wrap;overflow=hidden;rotatable=0;points=[[0,0.5],[1,0.5]];portConstraint=eastwest;dashed=1;dashPattern=1 4;" vertex="1" parent="iy51wzf_8HV-P7YHCsAi-19">
          <mxGeometry y="26" width="270" height="26" as="geometry" />
        </mxCell>
        <mxCell id="iy51wzf_8HV-P7YHCsAi-22" value="&lt;b&gt;item_created_at_utc&lt;/b&gt; &lt;i&gt;timestamp&lt;/i&gt;" style="text;html=1;strokeColor=default;fillColor=none;spacingLeft=4;spacingRight=4;whiteSpace=wrap;overflow=hidden;rotatable=0;points=[[0,0.5],[1,0.5]];portConstraint=eastwest;dashed=1;dashPattern=1 4;" vertex="1" parent="iy51wzf_8HV-P7YHCsAi-19">
          <mxGeometry y="52" width="270" height="26" as="geometry" />
        </mxCell>
        <mxCell id="iy51wzf_8HV-P7YHCsAi-23" value="&lt;b&gt;item_id&lt;/b&gt; &lt;i&gt;int&lt;/i&gt;" style="text;html=1;strokeColor=default;fillColor=none;spacingLeft=4;spacingRight=4;whiteSpace=wrap;overflow=hidden;rotatable=0;points=[[0,0.5],[1,0.5]];portConstraint=eastwest;dashed=1;dashPattern=1 4;" vertex="1" parent="iy51wzf_8HV-P7YHCsAi-19">
          <mxGeometry y="78" width="270" height="26" as="geometry" />
        </mxCell>
        <mxCell id="iy51wzf_8HV-P7YHCsAi-25" value="&lt;b&gt;item_name&lt;/b&gt; &lt;i&gt;string&lt;/i&gt;" style="text;html=1;strokeColor=default;fillColor=none;spacingLeft=4;spacingRight=4;whiteSpace=wrap;overflow=hidden;rotatable=0;points=[[0,0.5],[1,0.5]];portConstraint=eastwest;dashed=1;dashPattern=1 4;" vertex="1" parent="iy51wzf_8HV-P7YHCsAi-19">
          <mxGeometry y="104" width="270" height="26" as="geometry" />
        </mxCell>
        <mxCell id="iy51wzf_8HV-P7YHCsAi-26" value="&lt;b&gt;item_price&lt;/b&gt; &lt;i&gt;float&lt;/i&gt;" style="text;html=1;strokeColor=default;fillColor=none;spacingLeft=4;spacingRight=4;whiteSpace=wrap;overflow=hidden;rotatable=0;points=[[0,0.5],[1,0.5]];portConstraint=eastwest;dashed=1;dashPattern=1 4;" vertex="1" parent="iy51wzf_8HV-P7YHCsAi-19">
          <mxGeometry y="130" width="270" height="26" as="geometry" />
        </mxCell>
        <mxCell id="iy51wzf_8HV-P7YHCsAi-28" style="edgeStyle=orthogonalEdgeStyle;rounded=1;orthogonalLoop=1;jettySize=auto;html=1;exitX=1;exitY=0.5;exitDx=0;exitDy=0;entryX=0;entryY=0.5;entryDx=0;entryDy=0;curved=0;" edge="1" parent="1" source="iy51wzf_8HV-P7YHCsAi-11" target="iy51wzf_8HV-P7YHCsAi-25">
          <mxGeometry relative="1" as="geometry">
            <Array as="points">
              <mxPoint x="460" y="243" />
              <mxPoint x="460" y="217" />
            </Array>
          </mxGeometry>
        </mxCell>
        <mxCell id="iy51wzf_8HV-P7YHCsAi-29" style="edgeStyle=orthogonalEdgeStyle;rounded=1;orthogonalLoop=1;jettySize=auto;html=1;exitX=1;exitY=0.5;exitDx=0;exitDy=0;entryX=0;entryY=0.5;entryDx=0;entryDy=0;curved=0;" edge="1" parent="1" source="iy51wzf_8HV-P7YHCsAi-9" target="iy51wzf_8HV-P7YHCsAi-23">
          <mxGeometry relative="1" as="geometry" />
        </mxCell>
        <mxCell id="iy51wzf_8HV-P7YHCsAi-35" value="&lt;div style=&quot;font-size: 12px;&quot;&gt;cast(id as integer)&lt;/div&gt;" style="edgeLabel;html=1;align=center;verticalAlign=middle;resizable=0;points=[];fontSize=12;labelBorderColor=none;fontColor=#4D4D4D;" vertex="1" connectable="0" parent="iy51wzf_8HV-P7YHCsAi-29">
          <mxGeometry x="-0.4326" y="-1" relative="1" as="geometry">
            <mxPoint x="159" y="-1" as="offset" />
          </mxGeometry>
        </mxCell>
        <mxCell id="iy51wzf_8HV-P7YHCsAi-30" style="edgeStyle=orthogonalEdgeStyle;rounded=1;orthogonalLoop=1;jettySize=auto;html=1;exitX=1;exitY=0.5;exitDx=0;exitDy=0;entryX=0;entryY=0.5;entryDx=0;entryDy=0;curved=0;" edge="1" parent="1" source="iy51wzf_8HV-P7YHCsAi-7" target="iy51wzf_8HV-P7YHCsAi-21">
          <mxGeometry relative="1" as="geometry" />
        </mxCell>
        <mxCell id="iy51wzf_8HV-P7YHCsAi-31" style="edgeStyle=orthogonalEdgeStyle;rounded=1;orthogonalLoop=1;jettySize=auto;html=1;exitX=1;exitY=0.5;exitDx=0;exitDy=0;entryX=0;entryY=0.5;entryDx=0;entryDy=0;curved=0;" edge="1" parent="1" source="iy51wzf_8HV-P7YHCsAi-8" target="iy51wzf_8HV-P7YHCsAi-22">
          <mxGeometry relative="1" as="geometry" />
        </mxCell>
        <mxCell id="iy51wzf_8HV-P7YHCsAi-34" value="to_timestamp(&quot;created_at&quot;, &quot;yyyy-MM-dd HH:mm:ss&quot;)" style="edgeLabel;html=1;align=center;verticalAlign=middle;resizable=0;points=[];fontFamily=Helvetica;fontStyle=0;fontSize=12;labelBorderColor=none;fontColor=#4D4D4D;" vertex="1" connectable="0" parent="iy51wzf_8HV-P7YHCsAi-31">
          <mxGeometry x="-0.4114" y="1" relative="1" as="geometry">
            <mxPoint x="153" y="1" as="offset" />
          </mxGeometry>
        </mxCell>
        <mxCell id="iy51wzf_8HV-P7YHCsAi-32" style="edgeStyle=orthogonalEdgeStyle;rounded=1;orthogonalLoop=1;jettySize=auto;html=1;exitX=1;exitY=0.5;exitDx=0;exitDy=0;entryX=0;entryY=0.5;entryDx=0;entryDy=0;curved=0;" edge="1" parent="1" source="iy51wzf_8HV-P7YHCsAi-12" target="iy51wzf_8HV-P7YHCsAi-26">
          <mxGeometry relative="1" as="geometry">
            <Array as="points">
              <mxPoint x="490" y="269" />
              <mxPoint x="490" y="243" />
            </Array>
          </mxGeometry>
        </mxCell>
        <mxCell id="iy51wzf_8HV-P7YHCsAi-38" value="&lt;font style=&quot;font-size: 12px;&quot;&gt;cast(price as float)&lt;br style=&quot;font-size: 12px;&quot;&gt;&lt;/font&gt;" style="edgeLabel;html=1;align=center;verticalAlign=middle;resizable=0;points=[];labelBorderColor=none;fontColor=#4D4D4D;fontSize=12;" vertex="1" connectable="0" parent="iy51wzf_8HV-P7YHCsAi-32">
          <mxGeometry x="0.2835" relative="1" as="geometry">
            <mxPoint x="-12" as="offset" />
          </mxGeometry>
        </mxCell>
        <mxCell id="iy51wzf_8HV-P7YHCsAi-39" value="event.csv" style="swimlane;html=1;fontStyle=1;childLayout=stackLayout;horizontal=1;startSize=26;fillColor=#004C99;horizontalStack=0;resizeParent=1;resizeLast=0;collapsible=1;marginBottom=0;swimlaneFillColor=#ffffff;align=center;rounded=1;shadow=0;comic=0;labelBackgroundColor=none;strokeWidth=1;fontFamily=Verdana;fontSize=12;fontColor=#FFFFFF;strokeColor=#000099;" vertex="1" parent="1">
          <mxGeometry x="-130" y="630" width="160" height="234" as="geometry" />
        </mxCell>
        <mxCell id="iy51wzf_8HV-P7YHCsAi-76" value="&lt;b&gt;event_id&lt;/b&gt; &lt;i&gt;string&lt;/i&gt;" style="text;html=1;strokeColor=default;fillColor=none;spacingLeft=4;spacingRight=4;whiteSpace=wrap;overflow=hidden;rotatable=0;points=[[0,0.5],[1,0.5]];portConstraint=eastwest;dashed=1;dashPattern=1 4;" vertex="1" parent="iy51wzf_8HV-P7YHCsAi-39">
          <mxGeometry y="26" width="160" height="26" as="geometry" />
        </mxCell>
        <mxCell id="iy51wzf_8HV-P7YHCsAi-40" value="&lt;b&gt;event_time&lt;/b&gt; &lt;i&gt;string&lt;/i&gt;" style="text;html=1;strokeColor=default;fillColor=none;spacingLeft=4;spacingRight=4;whiteSpace=wrap;overflow=hidden;rotatable=0;points=[[0,0.5],[1,0.5]];portConstraint=eastwest;dashed=1;dashPattern=1 4;" vertex="1" parent="iy51wzf_8HV-P7YHCsAi-39">
          <mxGeometry y="52" width="160" height="26" as="geometry" />
        </mxCell>
        <mxCell id="iy51wzf_8HV-P7YHCsAi-41" value="&lt;b&gt;user_id&lt;/b&gt; &lt;i&gt;string&lt;/i&gt;" style="text;html=1;strokeColor=default;fillColor=none;spacingLeft=4;spacingRight=4;whiteSpace=wrap;overflow=hidden;rotatable=0;points=[[0,0.5],[1,0.5]];portConstraint=eastwest;dashed=1;dashPattern=1 4;" vertex="1" parent="iy51wzf_8HV-P7YHCsAi-39">
          <mxGeometry y="78" width="160" height="26" as="geometry" />
        </mxCell>
        <mxCell id="iy51wzf_8HV-P7YHCsAi-42" value="&lt;b&gt;event.payload&lt;/b&gt; &lt;i&gt;string&lt;/i&gt;" style="text;html=1;strokeColor=default;fillColor=none;spacingLeft=4;spacingRight=4;whiteSpace=wrap;overflow=hidden;rotatable=0;points=[[0,0.5],[1,0.5]];portConstraint=eastwest;dashed=1;dashPattern=1 4;" vertex="1" parent="iy51wzf_8HV-P7YHCsAi-39">
          <mxGeometry y="104" width="160" height="26" as="geometry" />
        </mxCell>
        <mxCell id="iy51wzf_8HV-P7YHCsAi-44" value="&lt;b&gt;modifier&lt;/b&gt; &lt;i&gt;string&lt;/i&gt;" style="text;html=1;strokeColor=default;fillColor=none;spacingLeft=4;spacingRight=4;whiteSpace=wrap;overflow=hidden;rotatable=0;points=[[0,0.5],[1,0.5]];portConstraint=eastwest;dashed=1;dashPattern=1 4;" vertex="1" parent="iy51wzf_8HV-P7YHCsAi-39">
          <mxGeometry y="130" width="160" height="26" as="geometry" />
        </mxCell>
        <mxCell id="iy51wzf_8HV-P7YHCsAi-71" style="edgeStyle=orthogonalEdgeStyle;rounded=1;orthogonalLoop=1;jettySize=auto;html=1;exitX=1;exitY=0.5;exitDx=0;exitDy=0;entryX=0;entryY=0.5;entryDx=0;entryDy=0;curved=0;" edge="1" source="iy51wzf_8HV-P7YHCsAi-79" parent="1">
          <mxGeometry relative="1" as="geometry">
            <mxPoint x="480" y="695" as="sourcePoint" />
            <mxPoint x="880" y="695" as="targetPoint" />
          </mxGeometry>
        </mxCell>
        <mxCell id="iy51wzf_8HV-P7YHCsAi-94" value="to_timestamp(&quot;event_time&quot;, &quot;yyyy-MM-dd HH:mm:ss&quot;)" style="edgeLabel;html=1;align=center;verticalAlign=middle;resizable=0;points=[];fontSize=12;fontColor=#4D4D4D;fontStyle=0" vertex="1" connectable="0" parent="iy51wzf_8HV-P7YHCsAi-71">
          <mxGeometry x="-0.5221" y="1" relative="1" as="geometry">
            <mxPoint x="195" y="1" as="offset" />
          </mxGeometry>
        </mxCell>
        <mxCell id="iy51wzf_8HV-P7YHCsAi-117" style="edgeStyle=orthogonalEdgeStyle;rounded=1;orthogonalLoop=1;jettySize=auto;html=1;exitX=0.5;exitY=1;exitDx=0;exitDy=0;entryX=0;entryY=0.75;entryDx=0;entryDy=0;curved=0;strokeColor=#004C99;strokeWidth=3;" edge="1" parent="1" source="iy51wzf_8HV-P7YHCsAi-77" target="iy51wzf_8HV-P7YHCsAi-110">
          <mxGeometry relative="1" as="geometry" />
        </mxCell>
        <mxCell id="iy51wzf_8HV-P7YHCsAi-77" value="item_event_bronze.event" style="swimlane;html=1;fontStyle=1;childLayout=stackLayout;horizontal=1;startSize=26;fillColor=#004C99;horizontalStack=0;resizeParent=1;resizeLast=0;collapsible=1;marginBottom=0;swimlaneFillColor=#ffffff;align=center;rounded=1;shadow=0;comic=0;labelBackgroundColor=none;strokeWidth=1;fontFamily=Verdana;fontSize=12;fontColor=#FFFFFF;strokeColor=#000099;" vertex="1" parent="1">
          <mxGeometry x="119" y="630" width="190" height="234" as="geometry" />
        </mxCell>
        <mxCell id="iy51wzf_8HV-P7YHCsAi-78" value="&lt;b&gt;event_id&lt;/b&gt; &lt;i&gt;string&lt;/i&gt;" style="text;html=1;strokeColor=default;fillColor=none;spacingLeft=4;spacingRight=4;whiteSpace=wrap;overflow=hidden;rotatable=0;points=[[0,0.5],[1,0.5]];portConstraint=eastwest;dashed=1;dashPattern=1 4;" vertex="1" parent="iy51wzf_8HV-P7YHCsAi-77">
          <mxGeometry y="26" width="190" height="26" as="geometry" />
        </mxCell>
        <mxCell id="iy51wzf_8HV-P7YHCsAi-79" value="&lt;b&gt;event_time&lt;/b&gt; &lt;i&gt;string&lt;/i&gt;" style="text;html=1;strokeColor=default;fillColor=none;spacingLeft=4;spacingRight=4;whiteSpace=wrap;overflow=hidden;rotatable=0;points=[[0,0.5],[1,0.5]];portConstraint=eastwest;dashed=1;dashPattern=1 4;" vertex="1" parent="iy51wzf_8HV-P7YHCsAi-77">
          <mxGeometry y="52" width="190" height="26" as="geometry" />
        </mxCell>
        <mxCell id="iy51wzf_8HV-P7YHCsAi-80" value="&lt;b&gt;user_id&lt;/b&gt; &lt;i&gt;string&lt;/i&gt;" style="text;html=1;strokeColor=default;fillColor=none;spacingLeft=4;spacingRight=4;whiteSpace=wrap;overflow=hidden;rotatable=0;points=[[0,0.5],[1,0.5]];portConstraint=eastwest;dashed=1;dashPattern=1 4;" vertex="1" parent="iy51wzf_8HV-P7YHCsAi-77">
          <mxGeometry y="78" width="190" height="26" as="geometry" />
        </mxCell>
        <mxCell id="iy51wzf_8HV-P7YHCsAi-81" value="&lt;b&gt;event.payload&lt;/b&gt; &lt;i&gt;string&lt;/i&gt;" style="text;html=1;strokeColor=default;fillColor=none;spacingLeft=4;spacingRight=4;whiteSpace=wrap;overflow=hidden;rotatable=0;points=[[0,0.5],[1,0.5]];portConstraint=eastwest;dashed=1;dashPattern=1 4;" vertex="1" parent="iy51wzf_8HV-P7YHCsAi-77">
          <mxGeometry y="104" width="190" height="26" as="geometry" />
        </mxCell>
        <mxCell id="iy51wzf_8HV-P7YHCsAi-82" value="&lt;b&gt;modifier&lt;/b&gt; &lt;i&gt;string&lt;/i&gt;" style="text;html=1;strokeColor=default;fillColor=none;spacingLeft=4;spacingRight=4;whiteSpace=wrap;overflow=hidden;rotatable=0;points=[[0,0.5],[1,0.5]];portConstraint=eastwest;dashed=1;dashPattern=1 4;" vertex="1" parent="iy51wzf_8HV-P7YHCsAi-77">
          <mxGeometry y="130" width="190" height="26" as="geometry" />
        </mxCell>
        <mxCell id="iy51wzf_8HV-P7YHCsAi-83" style="edgeStyle=orthogonalEdgeStyle;rounded=0;orthogonalLoop=1;jettySize=auto;html=1;exitX=1;exitY=0.5;exitDx=0;exitDy=0;entryX=0;entryY=0.5;entryDx=0;entryDy=0;" edge="1" parent="1" source="iy51wzf_8HV-P7YHCsAi-76" target="iy51wzf_8HV-P7YHCsAi-78">
          <mxGeometry relative="1" as="geometry" />
        </mxCell>
        <mxCell id="iy51wzf_8HV-P7YHCsAi-84" style="edgeStyle=orthogonalEdgeStyle;rounded=0;orthogonalLoop=1;jettySize=auto;html=1;exitX=1;exitY=0.5;exitDx=0;exitDy=0;entryX=0;entryY=0.5;entryDx=0;entryDy=0;" edge="1" parent="1" source="iy51wzf_8HV-P7YHCsAi-42" target="iy51wzf_8HV-P7YHCsAi-81">
          <mxGeometry relative="1" as="geometry" />
        </mxCell>
        <mxCell id="iy51wzf_8HV-P7YHCsAi-85" style="edgeStyle=orthogonalEdgeStyle;rounded=0;orthogonalLoop=1;jettySize=auto;html=1;exitX=1;exitY=0.5;exitDx=0;exitDy=0;entryX=0;entryY=0.5;entryDx=0;entryDy=0;" edge="1" parent="1" source="iy51wzf_8HV-P7YHCsAi-44" target="iy51wzf_8HV-P7YHCsAi-82">
          <mxGeometry relative="1" as="geometry" />
        </mxCell>
        <mxCell id="iy51wzf_8HV-P7YHCsAi-86" style="edgeStyle=orthogonalEdgeStyle;rounded=0;orthogonalLoop=1;jettySize=auto;html=1;exitX=1;exitY=0.5;exitDx=0;exitDy=0;entryX=0;entryY=0.5;entryDx=0;entryDy=0;" edge="1" parent="1" source="iy51wzf_8HV-P7YHCsAi-41" target="iy51wzf_8HV-P7YHCsAi-80">
          <mxGeometry relative="1" as="geometry" />
        </mxCell>
        <mxCell id="iy51wzf_8HV-P7YHCsAi-87" style="edgeStyle=orthogonalEdgeStyle;rounded=0;orthogonalLoop=1;jettySize=auto;html=1;exitX=1;exitY=0.5;exitDx=0;exitDy=0;entryX=0;entryY=0.5;entryDx=0;entryDy=0;" edge="1" parent="1" source="iy51wzf_8HV-P7YHCsAi-40" target="iy51wzf_8HV-P7YHCsAi-79">
          <mxGeometry relative="1" as="geometry" />
        </mxCell>
        <mxCell id="iy51wzf_8HV-P7YHCsAi-88" value="item_event_silver.event_processed" style="swimlane;html=1;fontStyle=1;childLayout=stackLayout;horizontal=1;startSize=26;fillColor=#004C99;horizontalStack=0;resizeParent=1;resizeLast=0;collapsible=1;marginBottom=0;swimlaneFillColor=#ffffff;align=center;rounded=1;shadow=0;comic=0;labelBackgroundColor=none;strokeWidth=1;fontFamily=Verdana;fontSize=12;fontColor=#FFFFFF;strokeColor=#000099;arcSize=21;" vertex="1" parent="1">
          <mxGeometry x="810" y="630" width="270" height="240" as="geometry" />
        </mxCell>
        <mxCell id="iy51wzf_8HV-P7YHCsAi-89" value="&lt;b&gt;event_id&lt;/b&gt; &lt;i&gt;string&lt;/i&gt;" style="text;html=1;strokeColor=default;fillColor=none;spacingLeft=4;spacingRight=4;whiteSpace=wrap;overflow=hidden;rotatable=0;points=[[0,0.5],[1,0.5]];portConstraint=eastwest;dashed=1;dashPattern=1 4;" vertex="1" parent="iy51wzf_8HV-P7YHCsAi-88">
          <mxGeometry y="26" width="270" height="26" as="geometry" />
        </mxCell>
        <mxCell id="iy51wzf_8HV-P7YHCsAi-90" value="&lt;b&gt;event_time_utc&lt;/b&gt; &lt;i&gt;timestamp&lt;/i&gt;" style="text;html=1;strokeColor=default;fillColor=none;spacingLeft=4;spacingRight=4;whiteSpace=wrap;overflow=hidden;rotatable=0;points=[[0,0.5],[1,0.5]];portConstraint=eastwest;dashed=1;dashPattern=1 4;" vertex="1" parent="iy51wzf_8HV-P7YHCsAi-88">
          <mxGeometry y="52" width="270" height="26" as="geometry" />
        </mxCell>
        <mxCell id="iy51wzf_8HV-P7YHCsAi-107" value="&lt;b&gt;event_year&lt;/b&gt; &lt;i&gt;int&lt;/i&gt;" style="text;html=1;strokeColor=default;fillColor=none;spacingLeft=4;spacingRight=4;whiteSpace=wrap;overflow=hidden;rotatable=0;points=[[0,0.5],[1,0.5]];portConstraint=eastwest;dashed=1;dashPattern=1 4;" vertex="1" parent="iy51wzf_8HV-P7YHCsAi-88">
          <mxGeometry y="78" width="270" height="26" as="geometry" />
        </mxCell>
        <mxCell id="iy51wzf_8HV-P7YHCsAi-91" value="&lt;b&gt;user_id&lt;/b&gt; &lt;i&gt;string&lt;/i&gt;" style="text;html=1;strokeColor=default;fillColor=none;spacingLeft=4;spacingRight=4;whiteSpace=wrap;overflow=hidden;rotatable=0;points=[[0,0.5],[1,0.5]];portConstraint=eastwest;dashed=1;dashPattern=1 4;" vertex="1" parent="iy51wzf_8HV-P7YHCsAi-88">
          <mxGeometry y="104" width="270" height="26" as="geometry" />
        </mxCell>
        <mxCell id="iy51wzf_8HV-P7YHCsAi-92" value="&lt;b&gt;event_name&lt;/b&gt; &lt;i&gt;string&lt;/i&gt;" style="text;html=1;strokeColor=default;fillColor=none;spacingLeft=4;spacingRight=4;whiteSpace=wrap;overflow=hidden;rotatable=0;points=[[0,0.5],[1,0.5]];portConstraint=eastwest;dashed=1;dashPattern=1 4;" vertex="1" parent="iy51wzf_8HV-P7YHCsAi-88">
          <mxGeometry y="130" width="270" height="26" as="geometry" />
        </mxCell>
        <mxCell id="iy51wzf_8HV-P7YHCsAi-93" value="&lt;b&gt;parameter_name&lt;/b&gt; &lt;i&gt;string&lt;/i&gt;" style="text;html=1;strokeColor=default;fillColor=none;spacingLeft=4;spacingRight=4;whiteSpace=wrap;overflow=hidden;rotatable=0;points=[[0,0.5],[1,0.5]];portConstraint=eastwest;dashed=1;dashPattern=1 4;" vertex="1" parent="iy51wzf_8HV-P7YHCsAi-88">
          <mxGeometry y="156" width="270" height="26" as="geometry" />
        </mxCell>
        <mxCell id="iy51wzf_8HV-P7YHCsAi-95" value="&lt;b&gt;parameter_value&lt;/b&gt; &lt;i&gt;string&lt;/i&gt;" style="text;html=1;strokeColor=default;fillColor=none;spacingLeft=4;spacingRight=4;whiteSpace=wrap;overflow=hidden;rotatable=0;points=[[0,0.5],[1,0.5]];portConstraint=eastwest;dashed=1;dashPattern=1 4;" vertex="1" parent="iy51wzf_8HV-P7YHCsAi-88">
          <mxGeometry y="182" width="270" height="26" as="geometry" />
        </mxCell>
        <mxCell id="iy51wzf_8HV-P7YHCsAi-96" value="&lt;b&gt;platform&lt;/b&gt; &lt;i&gt;string&lt;/i&gt;" style="text;html=1;strokeColor=default;fillColor=none;spacingLeft=4;spacingRight=4;whiteSpace=wrap;overflow=hidden;rotatable=0;points=[[0,0.5],[1,0.5]];portConstraint=eastwest;dashed=1;dashPattern=1 4;" vertex="1" parent="iy51wzf_8HV-P7YHCsAi-88">
          <mxGeometry y="208" width="270" height="26" as="geometry" />
        </mxCell>
        <mxCell id="iy51wzf_8HV-P7YHCsAi-97" style="edgeStyle=orthogonalEdgeStyle;rounded=1;orthogonalLoop=1;jettySize=auto;html=1;exitX=1;exitY=0.5;exitDx=0;exitDy=0;entryX=0;entryY=0.5;entryDx=0;entryDy=0;curved=0;" edge="1" parent="1" source="iy51wzf_8HV-P7YHCsAi-80" target="iy51wzf_8HV-P7YHCsAi-91">
          <mxGeometry relative="1" as="geometry">
            <Array as="points">
              <mxPoint x="450" y="721" />
              <mxPoint x="450" y="747" />
            </Array>
          </mxGeometry>
        </mxCell>
        <mxCell id="iy51wzf_8HV-P7YHCsAi-108" value="&lt;div style=&quot;font-size: 12px;&quot;&gt;year(to_timestamp(&quot;event_time&quot;, &quot;yyyy-MM-dd HH:mm:ss&quot;))&lt;/div&gt;" style="edgeLabel;html=1;align=center;verticalAlign=middle;resizable=0;points=[];fontColor=#4D4D4D;fontStyle=0;fontSize=12;" vertex="1" connectable="0" parent="iy51wzf_8HV-P7YHCsAi-97">
          <mxGeometry x="-0.7502" y="-1" relative="1" as="geometry">
            <mxPoint x="265" y="-1" as="offset" />
          </mxGeometry>
        </mxCell>
        <mxCell id="iy51wzf_8HV-P7YHCsAi-98" style="edgeStyle=orthogonalEdgeStyle;rounded=1;orthogonalLoop=1;jettySize=auto;html=1;exitX=1;exitY=0.5;exitDx=0;exitDy=0;entryX=0;entryY=0.5;entryDx=0;entryDy=0;curved=0;" edge="1" parent="1" source="iy51wzf_8HV-P7YHCsAi-78" target="iy51wzf_8HV-P7YHCsAi-89">
          <mxGeometry relative="1" as="geometry" />
        </mxCell>
        <mxCell id="iy51wzf_8HV-P7YHCsAi-99" style="edgeStyle=orthogonalEdgeStyle;rounded=1;orthogonalLoop=1;jettySize=auto;html=1;exitX=1;exitY=0.5;exitDx=0;exitDy=0;entryX=0;entryY=0.5;entryDx=0;entryDy=0;curved=0;" edge="1" parent="1" source="iy51wzf_8HV-P7YHCsAi-81" target="iy51wzf_8HV-P7YHCsAi-92">
          <mxGeometry relative="1" as="geometry">
            <Array as="points">
              <mxPoint x="430" y="747" />
              <mxPoint x="430" y="773" />
            </Array>
          </mxGeometry>
        </mxCell>
        <mxCell id="iy51wzf_8HV-P7YHCsAi-100" style="edgeStyle=orthogonalEdgeStyle;rounded=1;orthogonalLoop=1;jettySize=auto;html=1;exitX=1;exitY=0.5;exitDx=0;exitDy=0;entryX=0;entryY=0.5;entryDx=0;entryDy=0;curved=0;" edge="1" parent="1" source="iy51wzf_8HV-P7YHCsAi-81" target="iy51wzf_8HV-P7YHCsAi-93">
          <mxGeometry relative="1" as="geometry">
            <Array as="points">
              <mxPoint x="400" y="747" />
              <mxPoint x="400" y="799" />
            </Array>
          </mxGeometry>
        </mxCell>
        <mxCell id="iy51wzf_8HV-P7YHCsAi-101" style="edgeStyle=orthogonalEdgeStyle;rounded=1;orthogonalLoop=1;jettySize=auto;html=1;exitX=1;exitY=0.5;exitDx=0;exitDy=0;curved=0;entryX=0;entryY=0.5;entryDx=0;entryDy=0;" edge="1" parent="1" source="iy51wzf_8HV-P7YHCsAi-81" target="iy51wzf_8HV-P7YHCsAi-95">
          <mxGeometry relative="1" as="geometry">
            <mxPoint x="830" y="820" as="targetPoint" />
            <Array as="points">
              <mxPoint x="370" y="747" />
              <mxPoint x="370" y="825" />
            </Array>
          </mxGeometry>
        </mxCell>
        <mxCell id="iy51wzf_8HV-P7YHCsAi-102" style="edgeStyle=orthogonalEdgeStyle;rounded=1;orthogonalLoop=1;jettySize=auto;html=1;exitX=1;exitY=0.5;exitDx=0;exitDy=0;curved=0;entryX=0;entryY=0.5;entryDx=0;entryDy=0;" edge="1" parent="1" source="iy51wzf_8HV-P7YHCsAi-81" target="iy51wzf_8HV-P7YHCsAi-96">
          <mxGeometry relative="1" as="geometry">
            <mxPoint x="770" y="850" as="targetPoint" />
            <Array as="points">
              <mxPoint x="340" y="747" />
              <mxPoint x="340" y="851" />
            </Array>
          </mxGeometry>
        </mxCell>
        <mxCell id="iy51wzf_8HV-P7YHCsAi-103" value="F.from_json(&quot;`event.payload`&quot;, event_payload_schema))&lt;br&gt;F.col(&quot;event_payload_st.platform&quot;)" style="edgeLabel;html=1;align=center;verticalAlign=middle;resizable=0;points=[];fontColor=#4D4D4D;fontStyle=0" vertex="1" connectable="0" parent="iy51wzf_8HV-P7YHCsAi-102">
          <mxGeometry x="-0.1108" y="-2" relative="1" as="geometry">
            <mxPoint x="131" y="7" as="offset" />
          </mxGeometry>
        </mxCell>
        <mxCell id="iy51wzf_8HV-P7YHCsAi-104" value="F.from_json(&quot;`event.payload`&quot;, event_payload_schema))&lt;br&gt;F.col(&quot;event_payload_st.parameter_value&quot;)" style="edgeLabel;html=1;align=center;verticalAlign=middle;resizable=0;points=[];fontColor=#4D4D4D;fontStyle=0" vertex="1" connectable="0" parent="iy51wzf_8HV-P7YHCsAi-102">
          <mxGeometry x="-0.1108" y="-2" relative="1" as="geometry">
            <mxPoint x="131" y="-24" as="offset" />
          </mxGeometry>
        </mxCell>
        <mxCell id="iy51wzf_8HV-P7YHCsAi-105" value="F.from_json(&quot;`event.payload`&quot;, event_payload_schema))&lt;br&gt;F.col(&quot;event_payload_st.parameter_name&quot;)" style="edgeLabel;html=1;align=center;verticalAlign=middle;resizable=0;points=[];fontColor=#4D4D4D;fontStyle=0" vertex="1" connectable="0" parent="iy51wzf_8HV-P7YHCsAi-102">
          <mxGeometry x="-0.1108" y="-2" relative="1" as="geometry">
            <mxPoint x="131" y="-53" as="offset" />
          </mxGeometry>
        </mxCell>
        <mxCell id="iy51wzf_8HV-P7YHCsAi-106" value="F.from_json(&quot;`event.payload`&quot;, event_payload_schema))&lt;br&gt;F.col(&quot;event_payload_st.event_name&quot;)" style="edgeLabel;html=1;align=center;verticalAlign=middle;resizable=0;points=[];fontColor=#4D4D4D;fontStyle=0" vertex="1" connectable="0" parent="iy51wzf_8HV-P7YHCsAi-102">
          <mxGeometry x="-0.1108" y="-2" relative="1" as="geometry">
            <mxPoint x="131" y="-84" as="offset" />
          </mxGeometry>
        </mxCell>
        <mxCell id="iy51wzf_8HV-P7YHCsAi-110" value="item_event_silver.event_raw" style="swimlane;html=1;fontStyle=1;childLayout=stackLayout;horizontal=1;startSize=26;fillColor=#004C99;horizontalStack=0;resizeParent=1;resizeLast=0;collapsible=1;marginBottom=0;swimlaneFillColor=#ffffff;align=center;rounded=1;shadow=0;comic=0;labelBackgroundColor=none;strokeWidth=1;fontFamily=Verdana;fontSize=12;fontColor=#FFFFFF;strokeColor=#000099;" vertex="1" parent="1">
          <mxGeometry x="810" y="950" width="270" height="260" as="geometry" />
        </mxCell>
        <mxCell id="iy51wzf_8HV-P7YHCsAi-111" value="&lt;b&gt;event_id&lt;/b&gt; &lt;i&gt;string&lt;/i&gt;" style="text;html=1;strokeColor=default;fillColor=none;spacingLeft=4;spacingRight=4;whiteSpace=wrap;overflow=hidden;rotatable=0;points=[[0,0.5],[1,0.5]];portConstraint=eastwest;dashed=1;dashPattern=1 4;" vertex="1" parent="iy51wzf_8HV-P7YHCsAi-110">
          <mxGeometry y="26" width="270" height="26" as="geometry" />
        </mxCell>
        <mxCell id="iy51wzf_8HV-P7YHCsAi-112" value="&lt;b&gt;event_time&lt;/b&gt; &lt;i&gt;string&lt;/i&gt;" style="text;html=1;strokeColor=default;fillColor=none;spacingLeft=4;spacingRight=4;whiteSpace=wrap;overflow=hidden;rotatable=0;points=[[0,0.5],[1,0.5]];portConstraint=eastwest;dashed=1;dashPattern=1 4;" vertex="1" parent="iy51wzf_8HV-P7YHCsAi-110">
          <mxGeometry y="52" width="270" height="26" as="geometry" />
        </mxCell>
        <mxCell id="iy51wzf_8HV-P7YHCsAi-113" value="&lt;b&gt;user_id&lt;/b&gt; &lt;i&gt;string&lt;/i&gt;" style="text;html=1;strokeColor=default;fillColor=none;spacingLeft=4;spacingRight=4;whiteSpace=wrap;overflow=hidden;rotatable=0;points=[[0,0.5],[1,0.5]];portConstraint=eastwest;dashed=1;dashPattern=1 4;" vertex="1" parent="iy51wzf_8HV-P7YHCsAi-110">
          <mxGeometry y="78" width="270" height="26" as="geometry" />
        </mxCell>
        <mxCell id="iy51wzf_8HV-P7YHCsAi-114" value="&lt;b&gt;event.payload&lt;/b&gt; &lt;i&gt;string&lt;/i&gt;" style="text;html=1;strokeColor=default;fillColor=none;spacingLeft=4;spacingRight=4;whiteSpace=wrap;overflow=hidden;rotatable=0;points=[[0,0.5],[1,0.5]];portConstraint=eastwest;dashed=1;dashPattern=1 4;" vertex="1" parent="iy51wzf_8HV-P7YHCsAi-110">
          <mxGeometry y="104" width="270" height="26" as="geometry" />
        </mxCell>
        <mxCell id="iy51wzf_8HV-P7YHCsAi-115" value="&lt;b&gt;modifier&lt;/b&gt; &lt;i&gt;string&lt;/i&gt;" style="text;html=1;strokeColor=default;fillColor=none;spacingLeft=4;spacingRight=4;whiteSpace=wrap;overflow=hidden;rotatable=0;points=[[0,0.5],[1,0.5]];portConstraint=eastwest;dashed=1;dashPattern=1 4;" vertex="1" parent="iy51wzf_8HV-P7YHCsAi-110">
          <mxGeometry y="130" width="270" height="26" as="geometry" />
        </mxCell>
        <mxCell id="iy51wzf_8HV-P7YHCsAi-118" value="item_event_silver.item_raw" style="swimlane;html=1;fontStyle=1;childLayout=stackLayout;horizontal=1;startSize=26;fillColor=#330066;horizontalStack=0;resizeParent=1;resizeLast=0;collapsible=1;marginBottom=0;swimlaneFillColor=#ffffff;align=center;rounded=1;shadow=0;comic=0;labelBackgroundColor=none;strokeWidth=1;fontFamily=Verdana;fontSize=12;fontColor=#FFFFFF;strokeColor=#330066;" vertex="1" parent="1">
          <mxGeometry x="810" y="350" width="270" height="216" as="geometry">
            <mxRectangle x="355" y="74" width="150" height="30" as="alternateBounds" />
          </mxGeometry>
        </mxCell>
        <mxCell id="iy51wzf_8HV-P7YHCsAi-119" value="&lt;b&gt;adjective&lt;/b&gt; &lt;i&gt;string&lt;/i&gt;" style="text;html=1;strokeColor=default;fillColor=none;spacingLeft=4;spacingRight=4;whiteSpace=wrap;overflow=hidden;rotatable=0;points=[[0,0.5],[1,0.5]];portConstraint=eastwest;dashed=1;dashPattern=1 4;" vertex="1" parent="iy51wzf_8HV-P7YHCsAi-118">
          <mxGeometry y="26" width="270" height="26" as="geometry" />
        </mxCell>
        <mxCell id="iy51wzf_8HV-P7YHCsAi-120" value="&lt;b&gt;category&lt;/b&gt; &lt;i&gt;string&lt;/i&gt;" style="text;html=1;strokeColor=default;fillColor=none;spacingLeft=4;spacingRight=4;whiteSpace=wrap;overflow=hidden;rotatable=0;points=[[0,0.5],[1,0.5]];portConstraint=eastwest;dashed=1;dashPattern=1 4;" vertex="1" parent="iy51wzf_8HV-P7YHCsAi-118">
          <mxGeometry y="52" width="270" height="26" as="geometry" />
        </mxCell>
        <mxCell id="iy51wzf_8HV-P7YHCsAi-121" value="&lt;b&gt;created at&lt;/b&gt; &lt;i&gt;string&lt;/i&gt;" style="text;html=1;strokeColor=default;fillColor=none;spacingLeft=4;spacingRight=4;whiteSpace=wrap;overflow=hidden;rotatable=0;points=[[0,0.5],[1,0.5]];portConstraint=eastwest;dashed=1;dashPattern=1 4;" vertex="1" parent="iy51wzf_8HV-P7YHCsAi-118">
          <mxGeometry y="78" width="270" height="26" as="geometry" />
        </mxCell>
        <mxCell id="iy51wzf_8HV-P7YHCsAi-122" value="&lt;b&gt;id&lt;/b&gt; &lt;i&gt;string&lt;/i&gt;" style="text;html=1;strokeColor=default;fillColor=none;spacingLeft=4;spacingRight=4;whiteSpace=wrap;overflow=hidden;rotatable=0;points=[[0,0.5],[1,0.5]];portConstraint=eastwest;dashed=1;dashPattern=1 4;" vertex="1" parent="iy51wzf_8HV-P7YHCsAi-118">
          <mxGeometry y="104" width="270" height="26" as="geometry" />
        </mxCell>
        <mxCell id="iy51wzf_8HV-P7YHCsAi-123" value="&lt;b&gt;modifier&lt;/b&gt; &lt;i&gt;string&lt;/i&gt;" style="text;html=1;strokeColor=default;fillColor=none;spacingLeft=4;spacingRight=4;whiteSpace=wrap;overflow=hidden;rotatable=0;points=[[0,0.5],[1,0.5]];portConstraint=eastwest;dashed=1;dashPattern=1 4;" vertex="1" parent="iy51wzf_8HV-P7YHCsAi-118">
          <mxGeometry y="130" width="270" height="26" as="geometry" />
        </mxCell>
        <mxCell id="iy51wzf_8HV-P7YHCsAi-124" value="&lt;b&gt;name&lt;/b&gt; &lt;i&gt;string&lt;/i&gt;" style="text;html=1;strokeColor=default;fillColor=none;spacingLeft=4;spacingRight=4;whiteSpace=wrap;overflow=hidden;rotatable=0;points=[[0,0.5],[1,0.5]];portConstraint=eastwest;dashed=1;dashPattern=1 4;" vertex="1" parent="iy51wzf_8HV-P7YHCsAi-118">
          <mxGeometry y="156" width="270" height="26" as="geometry" />
        </mxCell>
        <mxCell id="iy51wzf_8HV-P7YHCsAi-125" value="&lt;b&gt;price&lt;/b&gt; &lt;i&gt;string&lt;/i&gt;" style="text;html=1;strokeColor=default;fillColor=none;spacingLeft=4;spacingRight=4;whiteSpace=wrap;overflow=hidden;rotatable=0;points=[[0,0.5],[1,0.5]];portConstraint=eastwest;dashed=1;dashPattern=1 4;" vertex="1" parent="iy51wzf_8HV-P7YHCsAi-118">
          <mxGeometry y="182" width="270" height="26" as="geometry" />
        </mxCell>
        <mxCell id="iy51wzf_8HV-P7YHCsAi-127" style="edgeStyle=orthogonalEdgeStyle;rounded=1;orthogonalLoop=1;jettySize=auto;html=1;exitX=0.5;exitY=1;exitDx=0;exitDy=0;entryX=0;entryY=0.5;entryDx=0;entryDy=0;curved=0;strokeColor=#330066;strokeWidth=3;" edge="1" parent="1" source="iy51wzf_8HV-P7YHCsAi-5" target="iy51wzf_8HV-P7YHCsAi-125">
          <mxGeometry relative="1" as="geometry">
            <mxPoint x="130" y="350" as="sourcePoint" />
            <mxPoint x="726" y="631" as="targetPoint" />
          </mxGeometry>
        </mxCell>
      </root>
    </mxGraphModel>
  </diagram>
</mxfile>
